<svg width="60" height="31" viewBox="0 0 60 31" fill="none" xmlns="http://www.w3.org/2000/svg">
<path d="M0 9.43364C0 4.22359 4.22359 0 9.43364 0V9.43364H0Z" fill="#374151"/>
<path d="M59.2773 20.7416C59.2773 25.9517 55.0538 30.1753 49.8437 30.1753L49.8437 20.7417L59.2773 20.7416Z" fill="#374151"/>
<path d="M20.2051 9.43365C20.2051 4.22359 24.4287 0 29.6387 0V15.1009H20.2051V9.43365Z" fill="#374151"/>
<path d="M39.0723 9.43365C39.0723 4.22359 34.8487 0 29.6386 0V15.1009H39.0723V9.43365Z" fill="#374151"/>
<path d="M0 9.43354C0 14.6436 4.22359 18.8672 9.43364 18.8672V9.43354H0Z" fill="#374151"/>
<path d="M59.2773 20.7417C59.2773 15.5317 55.0538 11.3081 49.8437 11.3081L49.8437 20.7417L59.2773 20.7417Z" fill="#374151"/>
<path d="M20.2051 20.7504C20.2051 25.9605 24.4287 30.1841 29.6387 30.1841V15.1008H20.2051V20.7504Z" fill="#374151"/>
<path d="M39.0723 20.7504C39.0723 25.9605 34.8487 30.1841 29.6386 30.1841V15.1008H39.0723V20.7504Z" fill="#374151"/>
<path d="M18.8672 9.43364C18.8672 4.22359 14.6436 0 9.43354 0V9.43364H18.8672Z" fill="#374151"/>
<path d="M40.4092 20.7416C40.4092 25.9517 44.6328 30.1753 49.8428 30.1753L49.8428 20.7416L40.4092 20.7416Z" fill="#374151"/>
<path d="M18.8672 20.7417C18.8672 25.9517 14.6436 30.1753 9.43354 30.1753V9.4336H18.8672V20.7417Z" fill="#374151"/>
<path d="M40.4092 9.43364C40.4092 4.22358 44.6328 -3.69238e-07 49.8428 -8.24715e-07L49.8428 20.7417L40.4092 20.7417L40.4092 9.43364Z" fill="#374151"/>
</svg>

