<?xml version="1.0" standalone="no"?>
<!DOCTYPE svg PUBLIC "-//W3C//DTD SVG 20010904//EN"
 "http://www.w3.org/TR/2001/REC-SVG-20010904/DTD/svg10.dtd">
<svg version="1.0" xmlns="http://www.w3.org/2000/svg"
 width="700.000000pt" height="700.000000pt" viewBox="0 0 700.000000 700.000000"
 preserveAspectRatio="xMidYMid meet">
<metadata>
Created by potrace 1.14, written by Peter Selinger 2001-2017
</metadata>
<g transform="translate(0.000000,700.000000) scale(0.100000,-0.100000)"
fill="#000000" stroke="none">
<path d="M3040 6968 c-2 -63 -12 -197 -26 -323 -81 -739 -385 -1481 -841
-2047 l-62 -78 -5 33 c-22 170 -51 313 -78 393 -31 95 -175 401 -184 392 -2
-3 -7 -25 -10 -49 -28 -219 -101 -439 -249 -754 -251 -532 -309 -702 -346
-1005 -12 -103 -6 -353 10 -432 99 -470 381 -990 780 -1438 180 -202 435 -439
626 -580 52 -38 68 -60 44 -60 -5 0 -56 -26 -112 -58 -56 -33 -151 -85 -212
-117 -60 -32 -146 -77 -190 -100 -44 -23 -152 -79 -240 -125 -497 -256 -801
-429 -987 -560 l-73 -52 220 6 c121 4 236 9 255 10 19 2 78 7 130 10 243 17
628 74 846 126 49 11 118 28 154 36 278 66 606 180 895 310 l122 55 84 -39
c46 -21 138 -60 204 -87 66 -26 129 -51 140 -56 55 -25 398 -132 535 -168 292
-75 642 -138 925 -165 224 -22 273 -25 505 -32 l215 -7 -30 24 c-47 39 -161
120 -260 186 -297 198 -568 348 -1192 663 l-343 172 58 46 c639 513 1140 1261
1306 1947 14 61 37 153 51 205 47 184 57 260 61 445 2 99 -1 205 -6 235 -5 30
-11 73 -14 95 -3 22 -8 51 -11 65 -2 14 -7 39 -11 55 -15 78 -71 261 -110 363
-137 356 -355 707 -640 1032 -119 136 -329 338 -340 328 -2 -2 5 -27 15 -54
73 -191 50 -525 -54 -782 -19 -47 -35 -42 -35 12 0 43 -48 249 -79 341 -96
277 -250 538 -474 800 -89 104 -318 328 -432 423 -159 133 -351 272 -497 361
l-38 23 0 -24z m647 -2335 c396 -312 690 -783 820 -1313 36 -144 34 -199 -11
-350 -90 -303 -225 -570 -417 -825 -44 -59 -97 -126 -117 -148 -81 -92 -312
-318 -395 -386 -102 -86 -79 -90 -235 42 -281 234 -455 450 -592 732 -101 208
-169 434 -200 662 l-11 82 100 148 c181 270 240 398 358 783 3 9 14 -5 28 -36
70 -152 108 -354 109 -569 0 -106 -13 -296 -24 -354 -4 -25 -7 -48 -5 -50 13
-12 124 147 189 270 131 245 243 661 272 1009 9 105 10 300 2 358 l-5 42 27
-17 c16 -10 64 -46 107 -80z"/>
</g>
</svg>
