<svg width="62" height="27" viewBox="0 0 62 27" fill="none" xmlns="http://www.w3.org/2000/svg">
  <path fill-rule="evenodd" clip-rule="evenodd" d="M53.595 16.6201C52.1015 15.5255 51.0145 14.1235 50.772 11.88C50.8558 11.7474 50.945 11.617 51.0375 11.4876C51.9121 10.2635 52.1375 9.05166 52.1375 9.05166C52.1375 9.05166 52.7943 9.96645 52.4577 12.1299C53.6724 10.8351 53.9938 7.88851 53.8105 7.09847C55.3975 8.16056 56.4592 9.93802 56.7672 11.8184C56.3197 13.9155 55.1077 15.4227 53.595 16.6201ZM53.6747 19.5096C55.7487 20.5029 58.3211 21.1522 61.4237 21.1522C60.044 20.0863 58.5154 19.3204 57.0555 18.5889C56.7004 18.4109 56.3494 18.235 56.0056 18.0574C58.5713 16.0579 59.8365 13.4965 60.1709 11.6621C61.3568 7.94629 57.8104 4.27079 57.0201 3.71891C57.3868 4.48696 57.2022 5.67202 56.8355 6.41817C56.556 2.79814 52.2967 0.401581 52.2967 0.401581C52.2327 3.19157 51.1521 5.8476 49.5168 7.76622C49.4594 6.82989 49.2445 6.1838 48.7304 5.28779C48.6662 6.23413 48.2651 7.08316 47.8586 7.94372C47.5344 8.62988 47.2068 9.32338 47.0437 10.0794C46.9192 10.6567 46.8803 11.1953 46.9437 11.7064H46.9305C47.2016 13.5346 48.6265 16.1128 51.3432 18.1139C50.6139 18.5322 49.8688 18.9171 49.1448 19.291C47.951 19.9077 46.8149 20.4945 45.9032 21.1522C49.0852 21.1522 51.6467 20.5035 53.6747 19.5096Z" fill="#FF8540"/>
  <path fill-rule="evenodd" clip-rule="evenodd" d="M53.595 16.6201C52.1015 15.5255 51.0145 14.1235 50.772 11.88C50.8558 11.7474 50.945 11.617 51.0375 11.4876C51.9121 10.2635 52.1375 9.05166 52.1375 9.05166C52.1375 9.05166 52.7943 9.96645 52.4577 12.1299C53.6724 10.8351 53.9938 7.88851 53.8105 7.09847C55.3975 8.16056 56.4592 9.93802 56.7672 11.8184C56.3197 13.9155 55.1077 15.4227 53.595 16.6201ZM53.6747 19.5096C55.7487 20.5029 58.3211 21.1522 61.4237 21.1522C60.044 20.0863 58.5154 19.3204 57.0555 18.5889C56.7004 18.4109 56.3494 18.235 56.0056 18.0574C58.5713 16.0579 59.8365 13.4965 60.1709 11.6621C61.3568 7.94629 57.8104 4.27079 57.0201 3.71891C57.3868 4.48696 57.2022 5.67202 56.8355 6.41817C56.556 2.79814 52.2967 0.401581 52.2967 0.401581C52.2327 3.19157 51.1521 5.8476 49.5168 7.76622C49.4594 6.82989 49.2445 6.1838 48.7304 5.28779C48.6662 6.23413 48.2651 7.08316 47.8586 7.94372C47.5344 8.62988 47.2068 9.32338 47.0437 10.0794C46.9192 10.6567 46.8803 11.1953 46.9437 11.7064H46.9305C47.2016 13.5346 48.6265 16.1128 51.3432 18.1139C50.6139 18.5322 49.8688 18.9171 49.1448 19.291C47.951 19.9077 46.8149 20.4945 45.9032 21.1522C49.0852 21.1522 51.6467 20.5035 53.6747 19.5096Z" fill="url(#paint0_linear_61_2)"/>
  <path d="M41.3034 21.1523C41.1344 21.1523 40.9908 21.0931 40.8725 20.9748C40.7542 20.8565 40.6951 20.7129 40.6951 20.5439V8.58019C40.6951 8.41121 40.7542 8.26758 40.8725 8.14929C40.9908 8.03101 41.1344 7.97186 41.3034 7.97186H43.4072C43.5931 7.97186 43.7367 8.03101 43.8381 8.14929C43.9564 8.26758 44.0155 8.41121 44.0155 8.58019V20.5439C44.0155 20.7129 43.9564 20.8565 43.8381 20.9748C43.7367 21.0931 43.5931 21.1523 43.4072 21.1523H41.3034Z" fill="#979797"/>
  <path d="M27.5141 21.1522C27.3451 21.1522 27.2015 21.0931 27.0832 20.9748C26.9649 20.8565 26.9058 20.7129 26.9058 20.5439V8.58018C26.9058 8.4112 26.9649 8.26757 27.0832 8.14928C27.2015 8.031 27.3451 7.97185 27.5141 7.97185H29.5925C29.7615 7.97185 29.9051 8.031 30.0234 8.14928C30.1417 8.26757 30.2009 8.4112 30.2009 8.58018V9.6194C30.6402 9.07867 31.1978 8.63087 31.8738 8.27602C32.5666 7.90426 33.4199 7.71838 34.4338 7.71838C35.4646 7.71838 36.3602 7.95496 37.1206 8.4281C37.881 8.88434 38.464 9.53491 38.8695 10.3798C39.2919 11.2247 39.5032 12.2386 39.5032 13.4214V20.5439C39.5032 20.7129 39.444 20.8565 39.3257 20.9748C39.2075 21.0931 39.0638 21.1522 38.8948 21.1522H36.6643C36.4953 21.1522 36.3517 21.0931 36.2334 20.9748C36.1151 20.8565 36.056 20.7129 36.056 20.5439V13.5735C36.056 12.5934 35.811 11.8246 35.3209 11.267C34.8478 10.7093 34.155 10.4305 33.2425 10.4305C32.3638 10.4305 31.6625 10.7093 31.1387 11.267C30.6149 11.8246 30.3529 12.5934 30.3529 13.5735V20.5439C30.3529 20.7129 30.2938 20.8565 30.1755 20.9748C30.0572 21.0931 29.9136 21.1522 29.7446 21.1522H27.5141Z" fill="#979797"/>
  <path d="M19.2709 26.7286C18.0374 26.7286 17.0235 26.568 16.2293 26.247C15.4351 25.9259 14.8099 25.5373 14.3536 25.081C13.8974 24.6248 13.5679 24.1685 13.3651 23.7123C13.1792 23.2729 13.0778 22.9265 13.0609 22.6731C13.044 22.5041 13.0947 22.352 13.213 22.2168C13.3482 22.0985 13.5003 22.0394 13.6693 22.0394H15.8744C16.0434 22.0394 16.1786 22.0732 16.28 22.1408C16.3814 22.2253 16.4659 22.3689 16.5335 22.5717C16.6349 22.7913 16.77 23.0279 16.939 23.2814C17.108 23.5349 17.3615 23.7461 17.6994 23.9151C18.0543 24.1009 18.5359 24.1939 19.1442 24.1939C19.7863 24.1939 20.3271 24.1009 20.7664 23.9151C21.2057 23.7292 21.5353 23.4166 21.7549 22.9772C21.9915 22.5379 22.1098 21.9295 22.1098 21.1522V19.4287C21.7042 19.9187 21.1804 20.3158 20.5383 20.62C19.9131 20.9241 19.1357 21.0762 18.2064 21.0762C17.2939 21.0762 16.5081 20.9326 15.8491 20.6453C15.1901 20.3411 14.6409 19.9271 14.2016 19.4033C13.7622 18.8626 13.4242 18.2289 13.1877 17.5023C12.968 16.7757 12.8413 15.973 12.8075 15.0943C12.7906 14.6381 12.7906 14.1818 12.8075 13.7256C12.8413 12.8807 12.968 12.0949 13.1877 11.3683C13.4073 10.6417 13.7369 10.0081 14.1762 9.46732C14.6325 8.90969 15.1901 8.47879 15.8491 8.17463C16.5081 7.87047 17.2939 7.71838 18.2064 7.71838C19.1695 7.71838 19.9806 7.90426 20.6397 8.27602C21.2987 8.63087 21.8394 9.07867 22.2619 9.6194V8.60553C22.2619 8.41965 22.321 8.26757 22.4393 8.14928C22.5576 8.031 22.7012 7.97185 22.8702 7.97185H24.9233C25.0923 7.97185 25.2359 8.031 25.3542 8.14928C25.4725 8.26757 25.5316 8.41965 25.5316 8.60553L25.557 20.8227C25.557 22.0394 25.3288 23.0871 24.8726 23.9657C24.4164 24.8444 23.7235 25.5204 22.7942 25.9935C21.8817 26.4835 20.7073 26.7286 19.2709 26.7286ZM19.1442 18.3894C19.837 18.3894 20.3946 18.2373 20.8171 17.9332C21.2395 17.629 21.5522 17.2319 21.7549 16.7419C21.9577 16.2518 22.076 15.7534 22.1098 15.2464C22.1267 15.0267 22.1351 14.7479 22.1351 14.41C22.1351 14.072 22.1267 13.8016 22.1098 13.5989C22.076 13.075 21.9577 12.5765 21.7549 12.1034C21.5522 11.6134 21.2395 11.2163 20.8171 10.9121C20.3946 10.591 19.837 10.4305 19.1442 10.4305C18.4514 10.4305 17.8938 10.591 17.4713 10.9121C17.0489 11.2163 16.7447 11.6218 16.5588 12.1287C16.3898 12.6357 16.2884 13.1933 16.2547 13.8016C16.2209 14.2072 16.2209 14.6212 16.2547 15.0436C16.2884 15.6351 16.3898 16.1927 16.5588 16.7165C16.7447 17.2235 17.0489 17.629 17.4713 17.9332C17.8938 18.2373 18.4514 18.3894 19.1442 18.3894Z" fill="#979797"/>
  <path d="M4.68918 21.4057C3.81048 21.4057 3.01628 21.2367 2.30657 20.8988C1.59685 20.5439 1.03077 20.0792 0.608326 19.5047C0.202775 18.9133 0 18.2542 0 17.5276C0 16.3448 0.473142 15.4069 1.41943 14.7141C2.38261 14.0044 3.64995 13.5313 5.22146 13.2947L8.69399 12.7878V12.2555C8.69399 11.5458 8.51656 10.9966 8.1617 10.6079C7.80685 10.2193 7.19852 10.025 6.33673 10.025C5.7284 10.025 5.22991 10.1517 4.84126 10.4052C4.4695 10.6417 4.19069 10.9628 4.00481 11.3683C3.86963 11.588 3.6753 11.6978 3.42183 11.6978H1.41943C1.23355 11.6978 1.08992 11.6472 0.988529 11.5458C0.904039 11.4444 0.861795 11.3092 0.861795 11.1402C0.878693 10.8698 0.988529 10.5403 1.1913 10.1517C1.39408 9.76303 1.71514 9.39128 2.15449 9.03642C2.59383 8.66467 3.15991 8.35206 3.85273 8.09859C4.54554 7.84512 5.38199 7.71838 6.36207 7.71838C7.42664 7.71838 8.32223 7.85357 9.04884 8.12393C9.79235 8.3774 10.3838 8.72381 10.8231 9.16316C11.2625 9.6025 11.5835 10.1179 11.7863 10.7093C11.9891 11.3007 12.0905 11.926 12.0905 12.585V20.5439C12.0905 20.7129 12.0313 20.8565 11.913 20.9748C11.7948 21.0931 11.6511 21.1522 11.4821 21.1522H9.42905C9.24317 21.1522 9.09109 21.0931 8.9728 20.9748C8.87142 20.8565 8.82072 20.7129 8.82072 20.5439V19.5554C8.60105 19.8764 8.30534 20.1806 7.93358 20.4679C7.56183 20.7382 7.10558 20.9664 6.56485 21.1522C6.04101 21.3212 5.41579 21.4057 4.68918 21.4057ZM5.55097 18.9978C6.1424 18.9978 6.67468 18.871 7.14783 18.6176C7.63787 18.3641 8.01807 17.9754 8.28844 17.4516C8.5757 16.9109 8.71933 16.2349 8.71933 15.4238V14.8916L6.18464 15.2971C5.18767 15.4492 4.44416 15.6942 3.95412 16.0322C3.46408 16.3701 3.21906 16.7841 3.21906 17.2742C3.21906 17.6459 3.32889 17.967 3.54857 18.2373C3.78514 18.4908 4.08085 18.6851 4.43571 18.8203C4.79057 18.9386 5.16232 18.9978 5.55097 18.9978Z" fill="#979797"/>
  <defs>
    <linearGradient id="paint0_linear_61_2" x1="53.6634" y1="0.401581" x2="53.6634" y2="21.1522" gradientUnits="userSpaceOnUse">
      <stop stop-color="#FFA16C"/>
      <stop offset="1" stop-color="#C80000"/>
      </linearGradient>
    </defs>
  </svg>

